HIERARCHY
ROOT Hips
{
	OFFSET 0.000000 0.000000 0.000000
	CHANNELS 6 Xposition Yposition Zposition Yrotation Xrotation Zrotation
	JOINT Chest
	{
		OFFSET 0.000000 -0.009281 11.569106
		CHANNELS 3 Yrotation Xrotation Zrotation
		JOINT Chest2
		{
			OFFSET -0.000000 0.016865 9.269641
			CHANNELS 3 Yrotation Xrotation Zrotation
			JOINT Chest3
			{
				OFFSET -0.000000 0.000001 8.374491
				CHANNELS 3 Yrotation Xrotation Zrotation
				JOINT Chest4
				{
					OFFSET -0.000000 0.000001 8.374493
					CHANNELS 3 Yrotation Xrotation Zrotation
					JOINT Neck
					{
						OFFSET -0.000000 0.000002 12.152554
						CHANNELS 3 Yrotation Xrotation Zrotation
						JOINT Head
						{
							OFFSET -0.000000 0.040101 7.802319
							CHANNELS 3 Yrotation Xrotation Zrotation
							End Site
							{
								OFFSET -0.000000 0.020947 14.853096
							}
						}
					}
					JOINT RightCollar
					{
						OFFSET 2.894404 0.000001 6.791374
						CHANNELS 3 Yrotation Xrotation Zrotation
						JOINT RightShoulder
						{
							OFFSET 13.574684 0.000001 0.000000
							CHANNELS 3 Yrotation Xrotation Zrotation
							JOINT RightElbow
							{
								OFFSET 23.923903 0.000002 0.000000
								CHANNELS 3 Yrotation Xrotation Zrotation
								JOINT RightWrist
								{
									OFFSET 19.846718 0.012767 0.000000
									CHANNELS 3 Yrotation Xrotation Zrotation
									End Site
									{
										OFFSET 14.973145 0.000001 0.000000
									}
								}
							}
						}
					}
					JOINT LeftCollar
					{
						OFFSET -2.894404 0.000001 6.791374
						CHANNELS 3 Yrotation Xrotation Zrotation
						JOINT LeftShoulder
						{
							OFFSET -13.574684 -0.000001 0.000000
							CHANNELS 3 Yrotation Xrotation Zrotation
							JOINT LeftElbow
							{
								OFFSET -23.923903 -0.000002 0.000000
								CHANNELS 3 Yrotation Xrotation Zrotation
								JOINT LeftWrist
								{
									OFFSET -19.846718 0.012763 0.000000
									CHANNELS 3 Yrotation Xrotation Zrotation
									End Site
									{
										OFFSET -14.973145 -0.000001 0.000000
									}
								}
							}
						}
					}
				}
			}
		}
	}
	JOINT RightHip
	{
		OFFSET 9.469263 0.004643 0.045487
		CHANNELS 3 Yrotation Xrotation Zrotation
		JOINT RightKnee
		{
			OFFSET 0.000000 0.002661 -40.478676
			CHANNELS 3 Yrotation Xrotation Zrotation
			JOINT RightAnkle
			{
				OFFSET 0.000000 0.049106 -35.224068
				CHANNELS 3 Yrotation Xrotation Zrotation
				JOINT RightToe
				{
					OFFSET -0.000001 12.539529 -6.151390
					CHANNELS 3 Yrotation Xrotation Zrotation
					End Site
					{
						OFFSET -0.000001 5.044994 -1.291870
					}
				}
			}
		}
	}
	JOINT LeftHip
	{
		OFFSET -9.469263 0.004641 0.045487
		CHANNELS 3 Yrotation Xrotation Zrotation
		JOINT LeftKnee
		{
			OFFSET 0.000000 0.002661 -40.478676
			CHANNELS 3 Yrotation Xrotation Zrotation
			JOINT LeftAnkle
			{
				OFFSET 0.000000 0.049106 -35.224068
				CHANNELS 3 Yrotation Xrotation Zrotation
				JOINT LeftToe
				{
					OFFSET -0.000001 12.539529 -6.151390
					CHANNELS 3 Yrotation Xrotation Zrotation
					End Site
					{
						OFFSET -0.000001 5.044994 -1.291870
					}
				}
			}
		}
	}
}
MOTION
Frames: 7
Frame Time: 0.016667
11.807609 6.803259 83.097748 -4.980171 -2.051771 -110.499921 -0.146753 -3.614716 1.144493 -0.056005 -1.605646 0.500627 -0.056005 -1.605645 0.500629 -0.040685 -1.204280 0.375298 0.384245 -16.347013 -2.034208 -0.015575 5.812885 -3.641903 3.061874 21.742855 -3.746076 25.384072 53.436709 28.458822 5.458783 3.000655 50.929828 37.456976 -6.589169 -22.288982 -4.418778 17.798617 -2.765872 -24.237234 53.811645 -26.538732 -10.797371 17.712286 -50.529538 -34.441622 -8.236731 30.108990 -0.697297 -7.212682 -2.886890 1.585463 -2.898711 -6.701949 -0.496263 3.908787 3.403713 -0.033331 -0.013170 0.024227 -0.286079 -8.172493 -0.449437 0.735778 -1.667623 1.563409 -0.866358 4.641815 0.209995 -0.006954 -0.030782 -0.025327 
11.782364 6.801004 83.098083 -4.968511 -2.042979 -110.453270 -0.169768 -3.601825 1.151698 -0.066828 -1.599746 0.503402 -0.066828 -1.599746 0.503403 -0.048800 -1.199865 0.377351 0.427777 -16.355887 -2.054845 0.058131 5.797210 -3.664491 3.018227 21.654085 -3.829334 25.116979 53.070881 28.111498 2.699330 1.581323 52.098832 37.257306 -7.471872 -22.822785 -4.435381 17.809735 -2.774206 -24.296043 53.762321 -26.492210 -9.067088 15.584975 -51.629564 -34.082477 -11.081185 31.772708 -0.683968 -7.201863 -2.885909 1.579593 -2.867473 -6.736708 -0.494726 3.884954 3.391598 -0.030871 -0.016504 0.025362 -0.281613 -8.138359 -0.479832 0.747155 -1.662832 1.555982 -0.879120 4.622957 0.205478 -0.008167 -0.035261 -0.024642 
11.756216 6.798890 83.100075 -4.964771 -2.035590 -110.410752 -0.192501 -3.592851 1.155093 -0.077152 -1.596075 0.504959 -0.077152 -1.596075 0.504964 -0.056541 -1.197121 0.378495 0.467997 -16.360938 -2.072346 0.126704 5.788580 -3.682509 2.940837 21.469677 -3.957880 25.050615 52.749811 27.914821 -0.060632 0.372596 53.359477 37.175360 -8.316617 -23.416271 -4.453130 17.778028 -2.788404 -24.387575 53.761095 -26.464514 -7.420738 13.659326 -52.794760 -33.957163 -13.415703 33.303005 -0.671465 -7.194581 -2.889147 1.572902 -2.842392 -6.761119 -0.493088 3.860441 3.377526 -0.029852 -0.017038 0.025554 -0.277983 -8.112438 -0.493764 0.757375 -1.656167 1.538870 -0.890380 4.599606 0.196482 -0.010283 -0.036014 -0.024564 
11.728318 6.796328 83.101959 -4.960827 -2.031724 -110.383800 -0.209489 -3.579915 1.154937 -0.084552 -1.590546 0.504720 -0.084553 -1.590546 0.504721 -0.062096 -1.192980 0.378298 0.492712 -16.367017 -2.081034 0.169662 5.777803 -3.689689 2.909033 21.376984 -4.027653 24.988095 52.442916 27.684661 -2.843956 -0.772125 54.738570 36.984672 -9.198886 -23.929180 -4.476494 17.726236 -2.790436 -24.422381 53.648202 -26.357205 -5.975029 12.114799 -54.009509 -33.809027 -15.585901 34.562407 -0.662719 -7.180600 -2.888495 1.577050 -2.827952 -6.778271 -0.496629 3.840128 3.359610 -0.029712 -0.017795 0.025014 -0.273802 -8.088518 -0.472714 0.770110 -1.649149 1.505260 -0.902151 4.578823 0.184929 -0.012810 -0.037649 -0.024027 
11.699758 6.793850 83.103226 -4.955805 -2.025656 -110.365762 -0.227096 -3.571862 1.151391 -0.092309 -1.586727 0.503180 -0.092309 -1.586727 0.503181 -0.067920 -1.190123 0.377124 0.505561 -16.368000 -2.083351 0.192723 5.776274 -3.689379 2.941393 21.345144 -4.013613 24.918477 52.304124 27.404396 -5.630519 -1.888138 56.235939 36.718168 -9.932198 -24.274105 -4.499472 17.661425 -2.816015 -24.373757 53.455140 -26.154043 -4.637634 10.837947 -55.251958 -33.368599 -17.790566 35.764155 -0.656810 -7.160142 -2.906487 1.580069 -2.821475 -6.780444 -0.498677 3.824281 3.351477 -0.030212 -0.019647 0.024165 -0.273187 -8.065784 -0.438400 0.784749 -1.636932 1.469155 -0.914889 4.554690 0.173564 -0.015032 -0.037759 -0.023742 
11.669505 6.794546 83.104088 -4.947013 -2.020324 -110.356726 -0.243024 -3.558683 1.143191 -0.099040 -1.581096 0.499189 -0.099040 -1.581096 0.499187 -0.072983 -1.185903 0.374115 0.511141 -16.368716 -2.078820 0.204729 5.775172 -3.678948 3.040190 21.240714 -3.897308 24.946728 52.372217 27.223944 -8.203128 -2.871117 57.677041 36.519287 -10.665440 -24.539662 -4.485074 17.563072 -2.760625 -24.469028 53.229713 -26.054730 -3.060373 9.633138 -56.521970 -33.090149 -20.249149 37.009124 -0.654381 -7.126837 -2.930256 1.589088 -2.829283 -6.768913 -0.499930 3.813044 3.330394 -0.033187 -0.021249 0.022223 -0.274702 -8.038168 -0.415772 0.801546 -1.626991 1.450605 -0.928387 4.532109 0.164409 -0.015814 -0.038756 -0.022475 
11.639445 6.794494 83.104271 -4.941643 -2.016998 -110.361787 -0.258376 -3.535100 1.141102 -0.106170 -1.570634 0.498176 -0.106170 -1.570634 0.498178 -0.078342 -1.178064 0.373338 0.518120 -16.377019 -2.074555 0.219426 5.760017 -3.668404 3.142961 21.219518 -3.798816 25.030808 52.334050 27.110144 -10.792110 -3.686520 59.025395 36.253387 -11.497856 -24.802556 -4.502397 17.440137 -2.757050 -24.609703 53.112190 -25.994740 -1.120139 8.343047 -57.707148 -33.019631 -22.650856 38.195026 -0.649806 -7.098740 -2.946528 1.589675 -2.831313 -6.758380 -0.497322 3.801126 3.329273 -0.034615 -0.025798 0.022033 -0.275930 -8.016933 -0.408044 0.815568 -1.616487 1.446174 -0.938203 4.513072 0.168666 -0.018082 -0.040974 -0.021623 
